PathFileType	3	(X/Y/Z)	F:\ViconData\AntennenMessung\Messung1\Session1\ID08.trc
DataRate	CameraRate	NumFrames	NumMarkers	Units	OrigDataRate	OrigDataStartFrame	OrigNumFrames
120.0	120.0	6	70	mm	120.0	1	1240	
Frame#	Time	Ashort			Along			Atop			A4			Bshort			Blong			Btop			B4			Cshort			Clong			Ctop			C4			Dshort			Dlong			Dtop			D4			Eshort			Elong			Etop			E4			Fshort			Flong			Ftop			F4			Gshort			Glong			Gtop			G4			Hshort			Hlong			Htop			H4			I1			I2			I3			I4			I5			WandAshort			WandAlong			WandAtop			WandA4			WandA15			WandBshort			WandB4			WandB5			WandBtop			WandBlong			WandCshort			WandClong			WandCtop			WandC4			WandC5			Acenter			Aantenna			Bcenter			Bantenna			Ccenter			Cantenna			Dcenter			Dantenna			Ecenter			Eantenna			Fcenter			Fantenna			Gcenter			Gantenna			Hcenter			Hantenna			Icenter			Iantenna			
		X1	Y1	Z1	X2	Y2	Z2	X3	Y3	Z3	X4	Y4	Z4	X5	Y5	Z5	X6	Y6	Z6	X7	Y7	Z7	X8	Y8	Z8	X9	Y9	Z9	X10	Y10	Z10	X11	Y11	Z11	X12	Y12	Z12	X13	Y13	Z13	X14	Y14	Z14	X15	Y15	Z15	X16	Y16	Z16	X17	Y17	Z17	X18	Y18	Z18	X19	Y19	Z19	X20	Y20	Z20	X21	Y21	Z21	X22	Y22	Z22	X23	Y23	Z23	X24	Y24	Z24	X25	Y25	Z25	X26	Y26	Z26	X27	Y27	Z27	X28	Y28	Z28	X29	Y29	Z29	X30	Y30	Z30	X31	Y31	Z31	X32	Y32	Z32	X33	Y33	Z33	X34	Y34	Z34	X35	Y35	Z35	X36	Y36	Z36	X37	Y37	Z37	X38	Y38	Z38	X39	Y39	Z39	X40	Y40	Z40	X41	Y41	Z41	X42	Y42	Z42	X43	Y43	Z43	X44	Y44	Z44	X45	Y45	Z45	X46	Y46	Z46	X47	Y47	Z47	X48	Y48	Z48	X49	Y49	Z49	X50	Y50	Z50	X51	Y51	Z51	X52	Y52	Z52	X53	Y53	Z53	X54	Y54	Z54	X55	Y55	Z55	X56	Y56	Z56	X57	Y57	Z57	X58	Y58	Z58	X59	Y59	Z59	X60	Y60	Z60	X61	Y61	Z61	X62	Y62	Z62	X63	Y63	Z63	X64	Y64	Z64	X65	Y65	Z65	X66	Y66	Z66	X67	Y67	Z67	X68	Y68	Z68	X69	Y69	Z69	X70	Y70	Z70	
1	0	-1038.2029	214.52478	-1644.0089	-1109.3593	204.07065	-1599.5151	-1063.4978	173.05426	-1626.0375	-1054.0797	262.14322	-1634.8329	-1352.6669	235.23695	1004.0321	-1281.3041	227.41179	1052.4213	-1322.771	194.01546	1020.9508	-1284.4222	287.82187	1052.8193	814.01831	187.8884	1209.599	892.22992	178.50346	1179.111	844.54919	145.37175	1198.3639	861.16351	292.18365	1167.3909	1115.8938	209.62793	-1401.5465	1056.4299	194.31284	-1460.1532	1095.2987	162.5083	-1423.6167	1069.8384	238.86543	-1426.0067	-1204.5887	1686.0222	-1563.0784	-1129.1024	1688.2576	-1605.9425	-1173.0656	1724.3241	-1581.9502	-1133.5275	1581.0181	-1603.4395	-1239.7155	1699.2611	1119.4703	-1309.4717	1698.9209	1071.9827	-1270.4797	1736.3375	1096.8964	-1245.6185	1592.7698	1110.6907	988.89178	1664.1716	1162.2816	957.25238	1700.4027	1183.8433	921.62244	1662.4143	1214.8593	939.77222	1659.3577	1159.988	999.37445	1668.4205	-1579.3556	1059.2003	1670.2521	-1518.688	1025.1858	1707.9827	-1551.1296	1059.4255	1672.1981	-1585.5806	392.99472	1170.207	-32.843033	395.68066	1172.3488	-116.95453	396.37387	1208.3541	-69.357185	427.07718	1169.4563	-69.155197	346.4487	1174.7213	-71.002335																																														-1068.3782	210.09148	-1625.1403	-1073.4718	248.74608	-1624.204	-1321.4888	231.81818	1025.1731	-1320.1748	270.55515	1029.4998	848.32367	183.77196	1196.2262	852.13293	222.52548	1194.0688	1089.1565	202.74164	-1427.8984	1083.3031	241.08337	-1431.9789	-1171.8123	1686.9927	-1581.6901	-1170.504	1648.0156	-1581.4186	-1271.1141	1699.1079	1098.0952	-1271.7783	1660.1337	1099.3501	952.47345	1705.8751	1187.0999	972.49548	1734.0808	1169.0844	1026.7958	1669.26	-1551.5482	1028.4156	1630.2959	-1551.9695	394.19318	1171.1626	-70.373825	391.91125	1132.2439	-71.437675
2	0.0083333333	-1038.1954	214.54485	-1644.0194	-1109.3237	204.08878	-1599.5148	-1063.3273	172.8486	-1625.9557	-1054.1069	262.12842	-1634.8296	-1352.7043	235.22015	1004.0125	-1281.3979	227.40771	1052.4611	-1322.7998	193.97887	1020.9682	-1284.4717	287.80191	1052.8032	814.01593	187.77295	1209.5765	892.85272	179.50377	1178.5131	844.53711	145.33739	1198.4729	861.12073	292.36206	1167.8101	1115.8948	209.61787	-1401.53	1056.4048	194.27922	-1460.1621	1095.365	162.61266	-1423.6132	1069.8367	238.88307	-1425.9951	-1204.5933	1686.0114	-1563.0707	-1129.0859	1688.2446	-1605.9196	-1173.0631	1724.321	-1581.9534	-1133.5298	1581.0162	-1603.4368	-1239.7238	1699.2603	1119.4744	-1309.4766	1698.9189	1071.9777	-1270.4958	1736.3522	1096.9044	-1245.6567	1592.8234	1110.7026	988.95935	1664.2402	1162.2422	957.25122	1700.4031	1183.8231	921.74628	1662.376	1214.8713	939.77924	1659.3615	1159.9441	999.37415	1668.4093	-1579.3595	1059.208	1670.2579	-1518.6942	1025.1843	1707.9785	-1551.1437	1059.4316	1672.2004	-1585.5928	392.99979	1170.2126	-32.85043	395.67621	1172.3525	-116.96164	396.36899	1208.3599	-69.366669	427.06354	1169.4309	-69.152115	346.43484	1174.7163	-71.013931																																														-1068.3162	210.117	-1625.1729	-1073.4895	248.76382	-1624.3613	-1321.5275	231.80437	1025.1951	-1320.2246	270.54147	1029.524	847.75409	184.23415	1196.2827	850.96362	223.04039	1194.0979	1089.193	202.73318	-1427.8467	1083.2952	241.07179	-1431.8922	-1171.8027	1686.9811	-1581.6785	-1170.4872	1648.0043	-1581.3917	-1271.1233	1699.1064	1098.0934	-1271.7799	1660.132	1099.3378	952.45111	1705.8774	1187.0901	972.39001	1734.1261	1169.0496	1026.7975	1669.2566	-1551.5549	1028.421	1630.2925	-1551.9689	394.19403	1171.1674	-70.382149	391.91812	1132.2484	-71.444771
3	0.016666667	-1038.1815	214.5392	-1644.0243	-1109.3571	204.09492	-1599.5267	-1063.3387	172.82753	-1625.974	-1054.0697	262.05826	-1634.899	-1352.6249	235.26988	1003.9821	-1281.4021	227.3996	1052.3905	-1322.6917	194.06372	1020.9058	-1284.4857	287.81445	1052.8113	814.21692	187.74356	1209.5032	892.3396	178.53325	1179.1312	844.49072	145.4312	1198.3483	861.24493	292.65573	1167.1829	1116.0303	210.12823	-1401.7073	1056.4016	194.28236	-1460.1448	1095.3823	162.64145	-1423.5734	1069.843	238.85635	-1425.9901	-1204.5948	1686.0245	-1563.0813	-1129.104	1688.2473	-1605.9331	-1173.0648	1724.3207	-1581.9529	-1133.5315	1581.0155	-1603.4374	-1239.7303	1699.2773	1119.4652	-1309.4609	1698.8871	1071.9664	-1270.4845	1736.3335	1096.8892	-1245.632	1592.8091	1110.6912	988.89795	1664.1857	1162.2946	957.22876	1700.4323	1183.8438	921.68219	1662.3733	1214.8267	939.7923	1659.3685	1159.9568	999.39441	1668.4222	-1579.366	1059.2129	1670.2523	-1518.7051	1025.1876	1707.9835	-1551.1567	1059.441	1672.2137	-1585.5977	392.99536	1170.2023	-32.849541	395.73199	1172.4272	-116.92246	396.40302	1208.3455	-69.381989	427.06332	1169.4431	-69.148636	346.43661	1174.7207	-71.00721																																														-1068.3169	210.11713	-1625.1842	-1073.4764	248.76566	-1624.3657	-1321.4282	231.82259	1025.1855	-1320.1322	270.55301	1029.5757	848.20612	183.73637	1196.2891	851.96588	222.49875	1194.2053	1089.1002	202.9718	-1428.0991	1083.1344	241.27237	-1432.3972	-1171.8154	1686.9895	-1581.6881	-1170.5109	1648.0125	-1581.4119	-1271.0992	1699.1018	1098.0974	-1271.7427	1660.1277	1099.3625	952.51593	1705.8263	1187.0504	972.52893	1734.0302	1169.022	1026.7979	1669.2605	-1551.5765	1028.4182	1630.2965	-1551.9988	394.21881	1171.1969	-70.436272	391.93063	1132.2798	-71.540733
4	0.025	-1038.1888	214.51974	-1644.025	-1109.3446	204.06425	-1599.4886	-1063.4614	173.07654	-1626.0577	-1054.0836	262.14142	-1634.8279	-1352.7079	235.29694	1004.0204	-1281.3442	227.43536	1052.3925	-1322.7754	194.00365	1020.9482	-1284.4404	287.8779	1052.7731	814.07062	187.90697	1209.5708	892.31519	178.52986	1179.1361	844.51447	145.4064	1198.3734	861.07898	292.32629	1167.303	1115.8828	209.62494	-1401.5475	1056.3926	194.2917	-1460.1345	1095.355	162.60297	-1423.5641	1069.8354	238.87706	-1425.9979	-1204.5938	1686.0262	-1563.0829	-1129.0995	1688.2363	-1605.9183	-1173.059	1724.324	-1581.9542	-1133.5364	1581.0132	-1603.4388	-1239.7356	1699.2808	1119.484	-1309.473	1698.9136	1071.9702	-1270.4586	1736.3049	1096.885	-1245.6511	1592.8173	1110.7079	988.87909	1664.1556	1162.2639	957.25336	1700.4327	1183.8042	921.70972	1662.3864	1214.9155	939.81445	1659.3625	1159.9539	999.38629	1668.4143	-1579.3743	1059.209	1670.2542	-1518.715	1025.1921	1707.9797	-1551.1566	1059.4261	1672.1958	-1585.6005	392.9975	1170.2056	-32.843807	395.67514	1172.3422	-116.94888	396.39636	1208.3558	-69.387146	427.08844	1169.4468	-69.154388	346.43158	1174.7194	-71.005165																																														-1068.3358	210.09	-1625.1559	-1073.4263	248.74487	-1624.2142	-1321.4792	231.8567	1025.188	-1320.1528	270.59192	1029.5266	848.29388	183.80551	1196.2589	852.10828	222.55983	1194.1249	1089.202	202.74817	-1427.823	1083.3258	241.0878	-1431.8903	-1171.812	1686.9858	-1581.6831	-1170.5104	1648.0085	-1581.4003	-1271.1003	1699.1155	1098.1144	-1271.7731	1660.1426	1099.403	952.5437	1705.835	1187.0118	972.53827	1734.0098	1168.9174	1026.8047	1669.2576	-1551.5724	1028.4272	1630.2935	-1551.991	394.19324	1171.1598	-70.402206	391.88818	1132.2423	-71.464241
5	0.033333333	-1038.1938	214.53662	-1644.032	-1109.3539	204.05013	-1599.4911	-1063.3376	172.82994	-1625.9513	-1054.1016	262.13855	-1634.8405	-1352.7108	235.21635	1003.9894	-1281.363	227.46194	1052.4447	-1322.8032	193.98083	1020.8563	-1284.4457	287.83954	1052.7925	814.00433	187.80545	1209.4956	892.86469	179.38185	1178.4258	844.56219	145.36395	1198.4158	861.26233	292.3244	1168.1096	1116.0233	210.1342	-1401.6981	1056.4333	194.28854	-1460.1093	1095.3883	162.64893	-1423.5989	1069.8522	238.88956	-1425.9777	-1204.6021	1686.04	-1563.0677	-1129.1028	1688.243	-1605.9241	-1173.058	1724.3195	-1581.9569	-1133.9857	1581.0342	-1603.6844	-1239.7255	1699.2677	1119.4785	-1309.4705	1698.8977	1071.9731	-1270.4615	1736.3141	1096.8842	-1245.658	1592.8021	1110.705	988.97089	1664.2501	1162.2399	957.26233	1700.4414	1183.8369	922.6264	1662.08	1215.0193	939.83044	1659.3761	1159.946	999.38812	1668.4225	-1579.3787	1059.1949	1670.2452	-1518.7144	1025.1962	1707.9915	-1551.1615	1059.4407	1672.1919	-1585.6127	392.98438	1170.2126	-32.844948	395.66351	1172.3479	-116.93199	396.36826	1208.3759	-69.361473	427.16541	1169.3323	-69.141724	346.44888	1174.6979	-70.99044																																														-1068.3368	210.09457	-1625.1647	-1073.5212	248.73984	-1624.349	-1321.5887	231.83386	1025.1257	-1320.3459	270.56845	1029.4946	847.82526	184.19281	1196.1707	851.08575	222.99147	1193.9274	1089.0833	202.97055	-1428.105	1083.0945	241.26958	-1432.3853	-1171.8121	1686.9967	-1581.6805	-1170.511	1648.0194	-1581.3921	-1271.0986	1699.1012	1098.1093	-1271.7657	1660.1281	1099.3923	952.8924	1705.429	1186.8132	972.59064	1733.6421	1168.4558	1026.7974	1669.2578	-1551.5763	1028.4082	1630.2932	-1551.9934	394.18015	1171.1655	-70.376129	391.89157	1132.2473	-71.437363
6	0.041666667	-1038.1686	214.52351	-1644.0577	-1109.3436	204.02855	-1599.4631	-1063.3734	172.83598	-1625.9291	-1054.0747	262.09641	-1634.9182	-1352.7144	235.21747	1003.9877	-1281.3651	227.41711	1052.3854	-1322.7507	194.07593	1020.8621	-1284.4056	287.87933	1052.7433	813.96191	187.77818	1209.4941	892.27191	178.55226	1179.0746	844.51501	145.4037	1198.3424	861.22443	292.41653	1168.1708	1116.0017	210.11165	-1401.7023	1056.3972	194.25771	-1460.0753	1095.3798	162.6534	-1423.6189	1069.8322	238.85214	-1425.9646	-1204.6185	1686.0481	-1563.0413	-1129.0977	1688.2556	-1605.9541	-1173.0605	1724.3159	-1581.9515	-1133.9949	1581.0436	-1603.6921	-1239.7007	1699.238	1119.4619	-1309.4434	1698.8795	1071.9646	-1270.4805	1736.3317	1096.897	-1245.6274	1592.8042	1110.6962	988.93439	1664.2211	1162.3002	957.27509	1700.4811	1183.8185	922.47357	1662.1517	1214.9916	939.85461	1659.3416	1159.9469	999.36481	1668.4125	-1579.3839	1059.1885	1670.2494	-1518.7086	1025.1841	1707.9874	-1551.1664	1059.4316	1672.1952	-1585.6154	392.98526	1170.2192	-32.849209	395.65689	1172.3645	-116.9278	396.37399	1208.3936	-69.369507	427.04745	1169.4377	-69.135902	346.45389	1174.7086	-70.997383																																														-1068.3672	210.07062	-1625.1366	-1073.5503	248.71591	-1624.3142	-1321.5284	231.80803	1025.1416	-1320.2739	270.53949	1029.5345	848.19794	183.74474	1196.1949	851.9212	222.50586	1194.024	1089.0494	202.94273	-1428.0977	1083.0322	241.23985	-1432.3549	-1171.8159	1687.007	-1581.6804	-1170.5156	1648.0297	-1581.3973	-1271.0952	1699.0767	1098.0809	-1271.7383	1660.1016	1099.3196	952.91632	1705.473	1186.7809	972.70587	1733.6346	1168.4424	1026.7855	1669.2543	-1551.5728	1028.3966	1630.2898	-1551.9817	394.17807	1171.1769	-70.388863	391.88181	1132.2593	-71.454819
